<svg
   xmlns="http://www.w3.org/2000/svg"
   id="straysheep-dev"
   viewBox="0 0 30 16.096313" >
  <path
     d="M 25.296859,0.686923 21.071578,15.409388 H 19.505961 L 23.712379,0.686923 Z M 30,9.5430362 24.803281,12.617684 V 10.703103 L 28.340068,8.4772862 24.803281,6.2043115 V 4.3180245 L 30,7.3738085 Z M 5.1967186,12.523368 0,9.5430362 V 7.3738075 l 5.1967186,-2.96147 v 1.886287 L 1.6599318,8.4772852 5.1967186,10.608788 Z M 19.58635,5.2313025 a 2.0120387,2.0120387 0 0 1 -2.012039,2.012038 c -0.869201,0 -1.609631,-0.555322 -1.883268,-1.319897 -0.354119,0.313877 -0.820912,0.515082 -1.335994,0.515082 -0.450697,0 -0.869201,-0.152915 -1.207223,-0.402409 -0.338023,0.249494 -0.748479,0.402409 -1.207223,0.402409 -0.515082,0 -0.981875,-0.201205 -1.335994,-0.515082 -0.273637,0.764575 -1.0140675,1.319897 -1.8832674,1.319897 A 2.0120387,2.0120387 0 0 1 6.7093034,5.2313025 c 0,-0.997971 0.7323811,-1.826931 1.6901112,-1.979846 -0.04829,-0.136819 -0.08048,-0.2816865 -0.08048,-0.4346015 a 1.2072232,1.2072232 0 0 1 1.207223,-1.207223 c 0.160963,0 0.313878,0.03219 0.450697,0.08853 0.1368174,-0.515082 0.6036104,-0.893346 1.1589334,-0.893346 0.201204,0 0.402408,0.05634 0.547275,0.136819 C 11.940604,0.402408 12.495926,0 13.147827,0 c 0.6519,0 1.207223,0.402408 1.464764,0.941635 0.144867,-0.08048 0.346071,-0.136819 0.547274,-0.136819 0.555323,0 1.022116,0.378264 1.158935,0.893346 0.136818,-0.05634 0.289733,-0.08853 0.450696,-0.08853 a 1.2072232,1.2072232 0 0 1 1.207224,1.207223 c 0,0.152915 -0.03219,0.2977825 -0.08048,0.4346015 0.95773,0.152915 1.690113,0.981875 1.690113,1.979846 m -8.048155,2.816854 a 0.80481548,0.80481548 0 0 0 -0.804816,0.8048147 0.80481548,0.80481548 0 0 0 0.804816,0.804816 0.80481548,0.80481548 0 0 0 0.804815,-0.804816 0.80481548,0.80481548 0 0 0 -0.804815,-0.8048147 m 3.219262,0 a 0.80481548,0.80481548 0 0 0 -0.804816,0.8048147 0.80481548,0.80481548 0 0 0 0.804816,0.804816 0.80481548,0.80481548 0 0 0 0.804815,-0.804816 0.80481548,0.80481548 0 0 0 -0.804815,-0.8048147 m 5.014,-1.078453 c -0.515082,0.651901 -1.303801,1.078453 -2.197146,1.078453 -0.362167,0 -0.708238,-0.08048 -1.038212,-0.2173 -0.008,2.0522777 -0.30583,4.5311105 -1.416475,5.8107655 -0.418504,0.474842 -0.925538,0.732383 -1.569391,0.812865 v -1.577439 h -0.804815 v 1.577439 c -0.643852,-0.08048 -1.150886,-0.329974 -1.56939,-0.812865 -1.118694,-1.287704 -1.4164745,-3.7504398 -1.4245235,-5.8027175 -0.321926,0.12877 -0.667996,0.209252 -1.030163,0.209252 -0.893346,0 -1.682064,-0.426553 -2.197146,-1.078453 -0.7162856,0.716286 -1.4245231,1.078453 -1.4245231,1.078453 0,0 0.8048153,1.6096297 2.4144451,1.6096297 0.289734,0 0.515082,-0.03219 0.708238,-0.07243 0.273637,3.0743958 1.368186,6.5109578 4.9254705,6.5109578 3.557284,0 4.651833,-3.436562 4.92547,-6.5109578 0.193156,0.04024 0.418505,0.07243 0.708238,0.07243 1.609631,0 2.414447,-1.6096297 2.414447,-1.6096297 0,0 -0.708238,-0.362167 -1.424524,-1.078453 z"
     style="fill:#ffffff" />
</svg>
